<?xml version="1.0" encoding="UTF-8" standalone="no"?>
<svg
   xmlns:dc="http://purl.org/dc/elements/1.1/"
   xmlns:cc="http://creativecommons.org/ns#"
   xmlns:rdf="http://www.w3.org/1999/02/22-rdf-syntax-ns#"
   xmlns:svg="http://www.w3.org/2000/svg"
   xmlns="http://www.w3.org/2000/svg"
   viewBox="0 0 1000 666.66669"
   height="666.66669"
   width="1000"
   xml:space="preserve"
   id="svg2"
   version="1.1"><metadata
     id="metadata8"><rdf:RDF><cc:Work
         rdf:about=""><dc:format>image/svg+xml</dc:format><dc:type
           rdf:resource="http://purl.org/dc/dcmitype/StillImage" /></cc:Work></rdf:RDF></metadata><defs
     id="defs6" /><g
     transform="matrix(1.3333333,0,0,-1.3333333,0,666.66667)"
     id="g10"><g
       transform="scale(0.1)"
       id="g12"><path
         id="path14"
         style="fill:#ffffff;fill-opacity:1;fill-rule:nonzero;stroke:none"
         d="M 0,0 H 7500 V 5000 H 0 Z" /><path
         id="path16"
         style="fill:#d3d8f0;fill-opacity:1;fill-rule:nonzero;stroke:none"
         d="M 1009.15,1829.1 H 483.246 c -12.074,0 -21.863,9.79 -21.863,21.87 v 373.25 c 0,19.76 16.015,35.77 35.773,35.77 h 511.994 c 12.07,0 21.86,-9.79 21.86,-21.86 v -387.16 c 0,-12.08 -9.79,-21.87 -21.86,-21.87" /><path
         id="path18"
         style="fill:#adb9e4;fill-opacity:1;fill-rule:nonzero;stroke:none"
         d="m 840.984,2257.31 c 0,-142.91 0,-285.83 0,-428.74 0,-8.04 12.5,-8.06 12.5,0 0,142.91 0,285.83 0,428.74 0,8.04 -12.5,8.06 -12.5,0" /><path
         id="path20"
         style="fill:#ffffff;fill-opacity:1;fill-rule:nonzero;stroke:none"
         d="m 691.434,2180.69 h -79.305 v 79.3 h 79.305 v -79.3" /><path
         id="path22"
         style="fill:#ffffff;fill-opacity:1;fill-rule:nonzero;stroke:none"
         d="m 991.105,1829.1 h -79.304 v 79.31 h 79.304 v -79.31" /><path
         id="path24"
         style="fill:#adb9e4;fill-opacity:1;fill-rule:nonzero;stroke:none"
         d="m 466.863,1835.83 -0.48,407.6 c 0.012,7.06 5.734,12.78 12.801,12.79 l 551.816,-1.23 0.02,10 -551.825,1.23 h -0.011 c -12.594,0 -22.797,-10.2 -22.801,-22.8 l 0.48,-407.6 10,0.01" /><path
         id="path26"
         style="fill:#d3d8f0;fill-opacity:1;fill-rule:nonzero;stroke:none"
         d="M 1318.05,1117.06 H 432.613 c -12.074,0 -21.863,9.78 -21.863,21.86 v 645.22 c 0,19.76 16.016,35.77 35.773,35.77 h 871.527 c 12.08,0 21.87,-9.79 21.87,-21.86 v -659.13 c 0,-12.08 -9.79,-21.86 -21.87,-21.86" /><path
         id="path28"
         style="fill:#adb9e4;fill-opacity:1;fill-rule:nonzero;stroke:none"
         d="m 1033.89,1815.54 c 0,-181.61 0,-363.21 0,-544.82 0,-51.51 0,-103.02 0,-154.54 0,-8.04 12.5,-8.05 12.5,0 0,181.61 0,363.21 0,544.82 0,51.51 0,103.02 0,154.54 0,8.04 -12.5,8.05 -12.5,0" /><path
         id="path30"
         style="fill:#ffffff;fill-opacity:1;fill-rule:nonzero;stroke:none"
         d="M 786.004,1690.55 H 656.641 v 129.36 h 129.363 v -129.36" /><path
         id="path32"
         style="fill:#ffffff;fill-opacity:1;fill-rule:nonzero;stroke:none"
         d="m 1274.82,1117.06 h -129.36 v 129.36 h 129.36 v -129.36" /><path
         id="path34"
         style="fill:#adb9e4;fill-opacity:1;fill-rule:nonzero;stroke:none"
         d="m 416.535,1128.03 -0.785,664.86 c 0.023,13.26 10.762,24 24.035,24.03 l 900.115,-2.01 0.03,10 -900.133,2.01 h -0.012 c -18.801,-0.01 -34.031,-15.24 -34.035,-34.04 l 0.785,-664.87 10,0.02" /><path
         id="path36"
         style="fill:#d3d8f0;fill-opacity:1;fill-rule:nonzero;stroke:none"
         d="M 1182.68,414.648 H 297.246 c -12.074,0 -21.863,9.793 -21.863,21.864 v 645.218 c 0,19.76 16.015,35.77 35.773,35.77 h 871.524 c 12.08,0 21.87,-9.79 21.87,-21.86 V 436.512 c 0,-12.071 -9.79,-21.864 -21.87,-21.864" /><path
         id="path38"
         style="fill:#adb9e4;fill-opacity:1;fill-rule:nonzero;stroke:none"
         d="m 898.527,1113.13 c 0,-181.61 0,-363.208 0,-544.821 0,-51.508 0,-103.02 0,-154.539 0,-8.04 12.5,-8.051 12.5,0 0,181.609 0,363.21 0,544.82 0,51.51 0,103.02 0,154.54 0,8.04 -12.5,8.05 -12.5,0" /><path
         id="path40"
         style="fill:#ffffff;fill-opacity:1;fill-rule:nonzero;stroke:none"
         d="M 650.637,988.141 H 521.273 V 1117.5 H 650.637 V 988.141" /><path
         id="path42"
         style="fill:#ffffff;fill-opacity:1;fill-rule:nonzero;stroke:none"
         d="m 1139.46,414.648 h -129.37 v 129.364 h 129.37 V 414.648" /><path
         id="path44"
         style="fill:#adb9e4;fill-opacity:1;fill-rule:nonzero;stroke:none"
         d="m 281.168,425.621 -0.785,664.859 c 0.023,13.27 10.762,24 24.035,24.03 l 900.122,-2.01 0.02,10 -900.13,2.01 h -0.012 c -18.801,-0.01 -34.031,-15.24 -34.035,-34.04 v 0 l 0.785,-664.868 10,0.019" /><path
         id="path46"
         style="fill:#d3d8f0;fill-opacity:1;fill-rule:nonzero;stroke:none"
         d="m 2392.97,3377.87 c -33.87,0 -67.73,0 -101.6,0 -80.89,0 -161.78,0 -242.67,0 -98.23,0 -196.46,0 -294.69,0 -84.56,0 -169.13,0 -253.69,0 -27.9,0 -55.8,0 -83.7,0 -13.13,0 -26.82,1.14 -39.91,0 h -1.81 c -8.04,0 -8.06,-12.5 0,-12.5 33.86,0 67.73,0 101.6,0 80.89,0 161.77,0 242.66,0 98.23,0 196.47,0 294.7,0 84.56,0 169.12,0 253.68,0 27.91,0 55.81,0 83.71,0 13.12,0 26.82,-1.13 39.91,0 h 1.81 c 8.04,0 8.05,12.5 0,12.5" /><path
         id="path48"
         style="fill:#d3d8f0;fill-opacity:1;fill-rule:nonzero;stroke:none"
         d="m 2379.46,3372.19 c 0,-23.41 18.98,-42.39 42.38,-42.39 23.41,0 42.39,18.98 42.39,42.39 0,23.4 -18.98,42.38 -42.39,42.38 -23.4,0 -42.38,-18.98 -42.38,-42.38" /><path
         id="path50"
         style="fill:#d3d8f0;fill-opacity:1;fill-rule:nonzero;stroke:none"
         d="m 1339.38,2586.22 c 0,-193.25 0,-386.49 0,-579.73 0,-8.05 12.5,-8.06 12.5,0 0,193.24 0,386.48 0,579.73 0,8.04 -12.5,8.05 -12.5,0" /><path
         id="path52"
         style="fill:#d3d8f0;fill-opacity:1;fill-rule:nonzero;stroke:none"
         d="m 1297.53,1994.45 c 0,-23.41 18.98,-42.38 42.39,-42.38 23.4,0 42.38,18.97 42.38,42.38 0,23.41 -18.98,42.39 -42.38,42.39 -23.41,0 -42.39,-18.98 -42.39,-42.39" /><path
         id="path54"
         style="fill:#f79334;fill-opacity:1;fill-rule:nonzero;stroke:none"
         d="m 942,2555.48 h 644.74 c 12.08,0 21.87,9.79 21.87,21.87 v 463.15 c 0,19.75 -16.02,35.77 -35.78,35.77 H 942 c -12.074,0 -21.863,-9.79 -21.863,-21.87 v -477.05 c 0,-12.08 9.789,-21.87 21.863,-21.87" /><path
         id="path56"
         style="fill:#1d2146;fill-opacity:1;fill-rule:nonzero;stroke:none"
         d="m 1136,3073.03 c 0,-172.73 0,-345.46 0,-518.19 0,-8.05 12.5,-8.06 12.5,0 0,172.73 0,345.46 0,518.19 0,8.04 -12.5,8.05 -12.5,0" /><path
         id="path58"
         style="fill:#d3d8f0;fill-opacity:1;fill-rule:nonzero;stroke:none"
         d="m 1330.56,2980.42 h 95.85 v 95.85 h -95.85 v -95.85" /><path
         id="path60"
         style="fill:#d3d8f0;fill-opacity:1;fill-rule:nonzero;stroke:none"
         d="m 968.367,2555.48 h 95.853 v 95.85 h -95.853 v -95.85" /><path
         id="path62"
         style="fill:#f89a89;fill-opacity:1;fill-rule:nonzero;stroke:none"
         d="m 1064.8,3248.16 c 0,0 57.76,75.88 199.57,102.29 141.82,26.42 195.19,-17.54 195.19,-17.54 0,0 80.51,-128.85 43.14,-208.76 -37.36,-79.91 -56.61,-197.86 32.2,-231.18 88.8,-33.33 189.98,73.45 217.5,188.67 22.85,95.7 52.38,176.06 14.96,373.87 -37.42,197.82 -443.18,398.29 -443.18,398.29 0,0 -213.48,-186.57 -307.89,-290.75 -94.399,-104.18 -88.247,-226.01 -88.247,-226.01" /><path
         id="path64"
         style="fill:#f89a89;fill-opacity:1;fill-rule:nonzero;stroke:none"
         d="m 1329.23,3878.6 c 0,0 -246.52,-82.15 -394.679,-209.48 -70.754,-60.8 -209.289,-358.12 -286.024,-571.72 -14.984,-41.71 -27.726,-73.32 -33,-90.07 -27.504,-87.34 58.317,-186.65 149.313,-120.55 76.164,55.32 135.664,241.77 135.664,241.77 l 218.246,447.75 210.48,302.3" /><path
         id="path66"
         style="fill:#f89a89;fill-opacity:1;fill-rule:nonzero;stroke:none"
         d="m 546.922,3267.84 377.926,391.92 -210.582,-528.6 c 0,0 -27.649,-16 -72.618,-33.72 -41.625,-16.4 -78.98,0.91 -87.906,8.98 -47.09,42.53 -50.121,119.53 -6.82,161.42" /><path
         id="path68"
         style="fill:#f89a89;fill-opacity:1;fill-rule:nonzero;stroke:none"
         d="m 2033.31,3878.6 -374.64,-382.9 -251.32,212.01 -173.49,134.19 223.87,432.34 c 209.21,3.62 465.12,-145.51 575.58,-395.64" /><path
         id="path70"
         style="fill:#f89a89;fill-opacity:1;fill-rule:nonzero;stroke:none"
         d="m 892.422,3429.54 236.648,-23.42 c -39.4,-47.5 -56.81,-111.48 -63.04,-173.71 -6.23,-62.23 -2.55,-124.63 -6.16,-186.97 -2.06,-35.45 -6.75,-71.82 -22.48,-103.71 -15.73,-31.89 -44.468,-58.74 -77.253,-62.12 -29.231,-3.02 -57.297,13.03 -76.102,36.27 -18.805,23.25 -29.555,52.97 -37.594,82.92 -37.566,139.96 -20.636,298.52 45.981,430.74" /><path
         id="path72"
         style="fill:#f35e64;fill-opacity:1;fill-rule:nonzero;stroke:none"
         d="m 852.465,3000.46 c -11.078,62.21 -23.402,125.75 -23.125,189.19 0.305,70.74 25.598,138.84 63.066,198.18 18.11,28.68 39.293,56.4 65.469,78.22 6.184,5.16 -2.699,13.96 -8.84,8.84 -51.472,-42.91 -88.445,-107.18 -111.019,-169.42 -21.442,-59.09 -24.063,-118.61 -17.227,-180.4 4.742,-42.89 12.063,-85.47 19.625,-127.93 1.406,-7.91 13.457,-4.56 12.051,3.32" /><path
         id="path74"
         style="fill:#f35e64;fill-opacity:1;fill-rule:nonzero;stroke:none"
         d="m 651.586,3076.09 c 52.469,140.94 111.824,279.23 177.84,414.36 3.515,7.2 -7.262,13.54 -10.797,6.31 -66.481,-136.1 -126.254,-275.4 -179.098,-417.35 -2.808,-7.54 9.27,-10.8 12.055,-3.32" /><path
         id="path76"
         style="fill:#f35e64;fill-opacity:1;fill-rule:nonzero;stroke:none"
         d="m 1627.61,3666.55 c 75.88,-70.34 122.87,-161.67 142.77,-262.58 19.07,-96.7 16.56,-200.17 -18.99,-292.68 -20.01,-52.07 -45.1,-104.52 -81.39,-147.36 -29.9,-35.3 -70.3,-65.19 -118.72,-62.41 -21.89,1.25 -47.04,8.23 -63,24.03 -14.39,14.26 -19.73,34.47 -20.34,54.21 -1.25,40.14 12.68,80.74 28.51,117.1 25.68,59.03 31.36,122.82 3.26,182.35 -17.72,37.56 -42.5,72.61 -67.84,105.42 -4.85,6.28 -15.71,0.06 -10.79,-6.3 23.5,-30.44 45.96,-62.7 63.61,-96.9 15.03,-29.12 22.68,-61.01 21.77,-93.84 -0.89,-32.28 -10.92,-60.91 -23.31,-90.27 -15.81,-37.44 -29.71,-79.1 -27.6,-120.28 0.97,-19.04 5.9,-38.16 17.8,-53.38 13.36,-17.1 33.49,-26.19 54.19,-31.13 107.3,-25.61 178.98,87.32 216.8,169.91 25.95,56.65 43.7,114.81 48.35,177.16 3.63,48.63 1,97.74 -6.46,145.9 -17.16,110.83 -67.01,213.16 -149.78,289.88 -5.89,5.47 -14.75,-3.35 -8.84,-8.83" /><path
         id="path78"
         style="fill:#d3d8f0;fill-opacity:1;fill-rule:nonzero;stroke:none"
         d="m 5101.25,3340.59 c 42.46,0 84.92,0 127.37,0 101.95,0 203.89,0 305.84,0 123.3,0 246.6,0 369.9,0 106.52,0 213.04,0 319.56,0 34.88,0 69.75,0 104.62,0 10.96,0 21.91,0 32.87,0 5.13,0 12.22,-1.29 17.22,0 h 2.19 c -2.08,2.08 -4.16,4.16 -6.25,6.25 0,-39.18 0,-78.35 0,-117.52 0,-94.06 0,-188.11 0,-282.16 0,-113.35 0,-226.69 0,-340.03 0,-98.37 0,-196.74 0,-295.1 0,-32.51 0,-65.02 0,-97.53 0,-15.11 -1.25,-30.82 0,-45.88 v -2.01 c 0,-8.04 12.5,-8.05 12.5,0 0,39.18 0,78.35 0,117.52 0,94.06 0,188.11 0,282.17 0,113.34 0,226.68 0,340.02 0,98.37 0,196.74 0,295.1 0,32.51 0,65.02 0,97.53 0,15.11 1.25,30.82 0,45.88 v 2.01 c 0,3.37 -2.86,6.25 -6.25,6.25 -42.45,0 -84.91,0 -127.36,0 -101.95,0 -203.9,0 -305.84,0 -123.3,0 -246.6,0 -369.9,0 -106.52,0 -213.04,0 -319.57,0 -34.87,0 -69.74,0 -104.62,0 -16.52,0 -33.59,1.23 -50.08,0 h -2.2 c -8.04,0 -8.05,-12.5 0,-12.5" /><path
         id="path80"
         style="fill:#adb9e4;fill-opacity:1;fill-rule:nonzero;stroke:none"
         d="m 3800.45,3729.66 c 9.7,13.53 19.4,27.08 29.13,40.59 4.85,6.72 3.33,16.1 -3.39,20.94 -6.72,4.84 -16.1,3.32 -20.94,-3.4 -9.78,-13.56 -19.49,-27.13 -29.18,-40.64 -4.83,-6.74 -3.29,-16.11 3.45,-20.94 6.73,-4.82 16.1,-3.28 20.93,3.45" /><path
         id="path82"
         style="fill:#adb9e4;fill-opacity:1;fill-rule:nonzero;stroke:none"
         d="m 3942.97,3916.87 c 20.36,23.46 41.4,45.76 63.38,66.43 6.03,5.68 6.32,15.17 0.65,21.21 -5.68,6.03 -15.17,6.33 -21.21,0.65 -22.86,-21.51 -44.58,-44.56 -65.47,-68.63 -5.43,-6.26 -4.76,-15.73 1.49,-21.16 6.26,-5.43 15.73,-4.76 21.16,1.5 z m 212.45,168.79 c 25.25,11.27 51.85,20.32 80.09,26.76 1.84,0.42 3.69,0.83 5.54,1.23 8.09,1.75 13.24,9.74 11.48,17.83 -1.75,8.1 -9.73,13.24 -17.83,11.49 -1.96,-0.42 -3.91,-0.86 -5.86,-1.3 -30.2,-6.88 -58.69,-16.58 -85.65,-28.62 -7.57,-3.37 -10.96,-12.25 -7.58,-19.81 3.38,-7.56 12.25,-10.96 19.81,-7.58 z m 266.31,35.61 c 30.08,-3.73 59.88,-9.89 88.99,-18.39 7.95,-2.32 16.28,2.25 18.6,10.21 2.32,7.95 -2.25,16.27 -10.2,18.59 -30.65,8.94 -62.02,15.43 -93.7,19.36 -8.22,1.02 -15.71,-4.82 -16.73,-13.04 -1.02,-8.22 4.82,-15.71 13.04,-16.73 z m 252.33,-96.41 c 18.29,-12.82 35.76,-26.78 52.27,-41.85 5.85,-5.34 11.57,-10.81 17.17,-16.41 5.85,-5.86 15.35,-5.87 21.21,-0.02 5.86,5.86 5.87,15.36 0.01,21.22 -5.92,5.92 -11.97,11.72 -18.17,17.37 -17.47,15.95 -35.95,30.71 -55.27,44.25 -6.78,4.76 -16.14,3.11 -20.89,-3.67 -4.75,-6.79 -3.11,-16.14 3.67,-20.89 z m 173.88,-205.96 c 13.22,-27.28 24.26,-55.65 32.96,-84.69 2.38,-7.94 10.74,-12.44 18.68,-10.07 7.93,2.38 12.44,10.74 10.06,18.68 -9.16,30.58 -20.78,60.43 -34.7,89.16 -3.61,7.45 -12.58,10.57 -20.04,6.96 -7.45,-3.62 -10.57,-12.59 -6.96,-20.04" /><path
         id="path84"
         style="fill:#adb9e4;fill-opacity:1;fill-rule:nonzero;stroke:none"
         d="m 4904.06,3554.43 c -0.63,-16.18 -2.02,-32.34 -4.17,-48.41 -1.1,-8.21 4.67,-15.76 12.88,-16.86 8.21,-1.1 15.76,4.67 16.86,12.88 2.27,17.01 3.74,34.11 4.41,51.22 0.32,8.28 -6.12,15.25 -14.4,15.57 -8.28,0.33 -15.25,-6.12 -15.58,-14.4" /><path
         id="path86"
         style="fill:#adb9e4;fill-opacity:1;fill-rule:nonzero;stroke:none"
         d="m 3533.61,3762.19 c -33,9.07 -66.52,15.53 -100.29,19.51 -8.22,0.97 -15.68,-4.91 -16.65,-13.14 -0.97,-8.23 4.91,-15.68 13.14,-16.65 32.31,-3.81 64.35,-9.99 95.85,-18.65 7.99,-2.19 16.25,2.51 18.44,10.5 2.19,7.98 -2.5,16.24 -10.49,18.43 z m -303.74,14.54 c -33.53,-5.46 -66.71,-13.16 -99.27,-22.98 -7.93,-2.39 -12.42,-10.76 -10.03,-18.69 2.39,-7.93 10.76,-12.42 18.69,-10.03 31.32,9.44 63.23,16.84 95.44,22.1 8.17,1.33 13.72,9.04 12.39,17.21 -1.33,8.18 -9.04,13.73 -17.22,12.39 z m -284.75,-106.28 c -28.98,-17.84 -56.75,-37.58 -83.05,-59.1 -6.41,-5.25 -7.36,-14.7 -2.11,-21.11 5.25,-6.41 14.7,-7.36 21.11,-2.11 25.24,20.66 51.93,39.62 79.78,56.78 7.05,4.34 9.25,13.58 4.91,20.64 -4.35,7.05 -13.59,9.25 -20.64,4.9 z m -220.84,-208.97 c -7.26,-10.69 -14.23,-21.6 -20.89,-32.73 -10.88,-18.21 -20.85,-36.87 -29.93,-55.93 -3.56,-7.48 -0.38,-16.43 7.1,-19.99 7.48,-3.56 16.43,-0.39 19.99,7.09 8.67,18.22 18.2,36.05 28.59,53.43 6.36,10.63 13.01,21.05 19.95,31.26 4.66,6.85 2.88,16.18 -3.97,20.84 -6.85,4.66 -16.18,2.88 -20.84,-3.97 z m -110.94,-283.15 c -5.42,-33.54 -8.57,-67.47 -9.5,-101.47 -0.23,-8.28 6.3,-15.18 14.58,-15.41 8.28,-0.22 15.18,6.31 15.41,14.59 0.89,32.7 3.92,65.3 9.12,97.51 1.32,8.18 -4.24,15.88 -12.41,17.2 -8.18,1.32 -15.88,-4.24 -17.2,-12.42 z m 11.24,-303.73 c 7.81,-33.11 17.77,-65.69 29.85,-97.44 2.95,-7.74 11.61,-11.63 19.36,-8.68 7.74,2.94 11.63,11.61 8.68,19.35 -11.61,30.5 -21.18,61.81 -28.69,93.65 -1.9,8.07 -9.98,13.06 -18.04,11.16 -8.07,-1.9 -13.06,-9.98 -11.16,-18.04 z m 127.88,-275.83 c 15.55,-20.61 32.28,-40.38 50.18,-59.18 5.71,-5.99 15.21,-6.22 21.21,-0.51 6,5.71 6.23,15.21 0.51,21.21 -17.09,17.94 -33.08,36.83 -47.94,56.54 -4.99,6.62 -14.39,7.94 -21.01,2.95 -6.61,-4.99 -7.93,-14.39 -2.95,-21.01" /><path
         id="path88"
         style="fill:#d3d8f0;fill-opacity:1;fill-rule:nonzero;stroke:none"
         d="m 5198.52,3643.79 c -30.9,28.07 -20.79,78.22 19.15,94.95 20.12,8.43 43.7,4.65 59.27,-9.49 30.9,-28.08 20.79,-78.23 -19.15,-94.96 -20.13,-8.43 -43.7,-4.65 -59.27,9.5 z m 140.11,130.93 c -39.87,45.36 -109.36,56.54 -164.5,26.47 -26.97,-14.71 -47,-36.39 -59.3,-61.09 -3,-6.02 -5.11,-12.41 -6.98,-18.82 l -35.78,-122.39 c -5.62,-19.24 8.21,-38.68 28.23,-39.68 l 90.85,-4.5 c 8.58,-0.43 25.07,-0.85 39.82,-0.95 27.74,-0.19 55.72,7.02 78.9,22.94 l 0.53,0.37 c 66.26,45.97 80.89,137.75 28.23,197.65" /><path
         id="path90"
         style="fill:#adb9e4;fill-opacity:1;fill-rule:nonzero;stroke:none"
         d="m 4960.95,3069.5 c 0,-551.29 -446.91,-998.2 -998.2,-998.2 -551.29,0 -998.19,446.91 -998.19,998.2 0,551.29 446.9,998.19 998.19,998.19 551.29,0 998.2,-446.9 998.2,-998.19" /><path
         id="path92"
         style="fill:#f3f2f1;fill-opacity:1;fill-rule:nonzero;stroke:none"
         d="m 3939.56,4068.15 c -170.22,-16.28 -331.54,-80.26 -460.46,-193.64 -105.44,-92.74 -186.69,-213.03 -241.15,-342.04 -82.91,-196.42 -96.55,-416.45 -64.04,-625.58 30.89,-198.7 103.88,-395.12 232.85,-551.44 120.94,-146.58 294.74,-254.17 485.11,-277.3 23.68,-2.88 47.48,-4.33 71.32,-4.5 8.05,-0.06 8.06,12.44 0,12.5 -190.49,1.42 -371.53,92.72 -502.75,227.95 -138.51,142.75 -221.17,331.74 -261.47,524.6 -42.32,202.53 -41.62,418.24 23.18,616.03 45.13,137.75 122.22,268.48 224.29,371.76 114.56,115.91 261.86,191.57 422.27,219.7 23.48,4.11 47.12,7.19 70.85,9.46 7.94,0.76 8.02,13.27 0,12.5" /><path
         id="path94"
         style="fill:#f3f2f1;fill-opacity:1;fill-rule:nonzero;stroke:none"
         d="m 3936.41,4067.3 c -122.21,-70.39 -219.64,-184.98 -294.47,-302.73 -37.78,-59.45 -70.72,-122.58 -94.41,-189.01 -27.74,-77.81 -43.6,-160.23 -53.68,-242.05 -10.75,-87.12 -13.86,-175.03 -13.04,-262.75 0.82,-87.07 4.51,-174.31 12.44,-261.03 7.85,-85.88 20.43,-171.55 41.59,-255.23 19.01,-75.19 43.28,-151.42 83.98,-217.95 70.95,-115.99 184.6,-197.76 307.34,-252.12 15.25,-6.76 30.66,-13.11 46.2,-19.15 7.5,-2.92 10.75,9.16 3.32,12.05 -124.24,48.36 -243.29,121.44 -322.79,230.7 -44.05,60.54 -71.28,129.46 -92.53,200.82 -24.3,81.55 -39.61,165.58 -49.36,250.04 -9.71,83.99 -14.25,168.56 -16.58,253.05 -2.34,84.64 -1.73,169.47 5.07,253.92 6.9,85.78 20.38,171.18 43.69,254.11 18.81,66.93 46.65,130.3 80.95,190.72 69.5,122.43 162.89,240.23 279.4,321.01 12.72,8.82 25.78,17.09 39.19,24.8 6.97,4.02 0.68,14.82 -6.31,10.8" /><path
         id="path96"
         style="fill:#f3f2f1;fill-opacity:1;fill-rule:nonzero;stroke:none"
         d="m 3980.27,2079.9 c -25.35,255.52 -40.17,512.04 -47.77,768.68 -7.73,261.39 -7.93,523 -1.99,784.43 3.25,143.02 8.38,286 15.3,428.89 0.39,8.04 -12.11,8.02 -12.5,0 -12.42,-256.59 -19.11,-513.48 -19.43,-770.38 -0.32,-261.44 5.88,-522.94 20.79,-783.96 8.16,-142.76 18.98,-285.37 33.1,-427.66 0.78,-7.93 13.29,-8.02 12.5,0" /><path
         id="path98"
         style="fill:#f3f2f1;fill-opacity:1;fill-rule:nonzero;stroke:none"
         d="m 3978.44,2066.88 c 130.64,102.6 245.53,225.88 334.1,366.67 86.99,138.3 147.73,293.69 170.56,455.8 11.49,81.56 12.36,163.74 8.01,245.88 -4.22,79.72 -13.76,159.25 -29.75,237.49 -29.19,142.88 -80.46,283.09 -162.12,404.6 -76.53,113.86 -179.81,208.6 -303.15,269.53 -15.26,7.54 -30.79,14.51 -46.5,21.08 -7.41,3.1 -10.64,-8.99 -3.32,-12.05 126.7,-53.03 235.97,-140.49 317.88,-250.53 85.18,-114.43 140.68,-248.53 174.15,-386.61 18.31,-75.54 30.16,-152.57 36.66,-230 6.79,-80.99 9.27,-163.09 2.03,-244.13 -14.44,-161.62 -67.24,-318.19 -147.65,-458.76 -80.86,-141.38 -188.67,-266.53 -312.69,-371.77 -15.43,-13.09 -31.14,-25.86 -47.05,-38.36 -6.32,-4.96 2.58,-13.75 8.84,-8.84" /><path
         id="path100"
         style="fill:#f3f2f1;fill-opacity:1;fill-rule:nonzero;stroke:none"
         d="m 3947.93,4055.65 c 77.23,0.05 153.57,-20.63 225.04,-48.62 80.12,-31.38 156.21,-73.62 226.58,-123.03 67.6,-47.47 131.11,-102.39 183.64,-166.36 56.67,-69.01 95.28,-151.72 122.76,-236.23 62.28,-191.48 64.36,-399.89 30.75,-597.1 -16.92,-99.26 -43.83,-197.23 -83.59,-289.85 -37.85,-88.14 -87.03,-174.36 -151.57,-245.79 -60.43,-66.89 -133.71,-121.9 -212.13,-165.96 -78.7,-44.21 -164.02,-78.09 -252.68,-95.79 -20.75,-4.14 -41.66,-7.28 -62.71,-9.37 -7.93,-0.79 -8.02,-13.29 0,-12.5 89.06,8.85 175.59,35.84 256.56,73.48 84.38,39.23 163.8,90.7 232.43,153.68 145.06,133.12 228.53,325.47 271.11,514.63 44.56,198 52.41,410.03 3.77,608.03 -22.77,92.69 -58.01,186.49 -111.67,265.98 -45.49,67.38 -104.99,125.06 -168.53,175.3 -69.16,54.68 -144.74,101.59 -224.73,138.69 -72.98,33.85 -150.58,60.57 -230.76,70.07 -18.02,2.14 -36.13,3.25 -54.27,3.24 -8.04,0 -8.06,-12.5 0,-12.5" /><path
         id="path102"
         style="fill:#f3f2f1;fill-opacity:1;fill-rule:nonzero;stroke:none"
         d="m 2965.95,3022.73 c 258.52,0 517.03,0 775.55,0 261.59,0 523.18,0 784.76,0 144.9,0 289.79,0 434.69,0 8.04,0 8.05,12.5 0,12.5 -258.52,0 -517.04,0 -775.56,0 -261.58,0 -523.17,0 -784.76,0 -144.89,0 -289.79,0 -434.68,0 -8.04,0 -8.06,-12.5 0,-12.5" /><path
         id="path104"
         style="fill:#f3f2f1;fill-opacity:1;fill-rule:nonzero;stroke:none"
         d="m 3112.24,3585.98 c 55.78,0 111.56,0 167.33,0 133.91,0 267.81,0 401.72,0 161.9,0 323.79,0 485.69,0 139.19,0 278.38,0 417.57,0 46.3,0 92.6,0 138.9,0 21.57,0 43.48,-1.1 65.03,0 0.93,0.05 1.87,0 2.81,0 8.04,0 8.05,12.5 0,12.5 -55.78,0 -111.55,0 -167.33,0 -133.91,0 -267.81,0 -401.72,0 -161.89,0 -323.79,0 -485.69,0 -139.19,0 -278.38,0 -417.57,0 -46.3,0 -92.6,0 -138.9,0 -21.57,0 -43.47,1.1 -65.03,0 -0.93,-0.05 -1.87,0 -2.81,0 -8.04,0 -8.05,-12.5 0,-12.5" /><path
         id="path106"
         style="fill:#f3f2f1;fill-opacity:1;fill-rule:nonzero;stroke:none"
         d="m 3195.7,2459.48 c 199.88,0 399.76,0 599.65,0 199.05,0 398.1,0 597.15,0 112.44,0 224.87,0 337.31,0 8.04,0 8.05,12.5 0,12.5 -199.89,0 -399.77,0 -599.66,0 -199.05,0 -398.1,0 -597.15,0 -112.43,0 -224.87,0 -337.3,0 -8.05,0 -8.06,-12.5 0,-12.5" /><path
         id="path108"
         style="fill:#f25355;fill-opacity:1;fill-rule:nonzero;stroke:none"
         d="M 1390.65,1188.58 H 705.855 c -12.078,0 -21.867,9.79 -21.867,21.86 v 493.45 c 0,19.75 16.02,35.77 35.778,35.77 h 670.884 c 12.07,0 21.86,-9.79 21.86,-21.86 v -507.36 c 0,-12.07 -9.79,-21.86 -21.86,-21.86" /><path
         id="path110"
         style="fill:#1d2146;fill-opacity:1;fill-rule:nonzero;stroke:none"
         d="m 1171.22,1736.23 c 0,-182.78 0,-365.56 0,-548.34 0,-8.04 12.5,-8.05 12.5,0 0,182.78 0,365.56 0,548.34 0,8.04 -12.5,8.05 -12.5,0" /><path
         id="path112"
         style="fill:#d3d8f0;fill-opacity:1;fill-rule:nonzero;stroke:none"
         d="m 978.211,1638.23 h -101.43 v 101.43 h 101.43 v -101.43" /><path
         id="path114"
         style="fill:#d3d8f0;fill-opacity:1;fill-rule:nonzero;stroke:none"
         d="m 1361.47,1188.58 h -101.42 v 101.43 h 101.42 v -101.43" /><path
         id="path116"
         style="fill:#f79334;fill-opacity:1;fill-rule:nonzero;stroke:none"
         d="m 2064.56,1194.88 h -684.79 c -12.07,0 -21.86,9.79 -21.86,21.86 v 493.45 c 0,19.75 16.01,35.77 35.77,35.77 h 670.88 c 12.08,0 21.87,-9.79 21.87,-21.86 v -507.36 c 0,-12.07 -9.79,-21.86 -21.87,-21.86" /><path
         id="path118"
         style="fill:#1d2146;fill-opacity:1;fill-rule:nonzero;stroke:none"
         d="m 1845.14,1742.53 c 0,-182.78 0,-365.56 0,-548.34 0,-8.04 12.5,-8.05 12.5,0 0,182.78 0,365.56 0,548.34 0,8.04 -12.5,8.06 -12.5,0" /><path
         id="path120"
         style="fill:#d3d8f0;fill-opacity:1;fill-rule:nonzero;stroke:none"
         d="M 1652.13,1644.53 H 1550.7 v 101.43 h 101.43 v -101.43" /><path
         id="path122"
         style="fill:#d3d8f0;fill-opacity:1;fill-rule:nonzero;stroke:none"
         d="m 2035.39,1194.88 h -101.43 v 101.43 h 101.43 v -101.43" /><path
         id="path124"
         style="fill:#f79334;fill-opacity:1;fill-rule:nonzero;stroke:none"
         d="M 1380.08,634.898 H 695.289 c -12.074,0 -21.863,9.793 -21.863,21.864 v 493.448 c 0,19.75 16.015,35.77 35.773,35.77 h 670.881 c 12.08,0 21.87,-9.79 21.87,-21.87 V 656.762 c 0,-12.071 -9.79,-21.864 -21.87,-21.864" /><path
         id="path126"
         style="fill:#1d2146;fill-opacity:1;fill-rule:nonzero;stroke:none"
         d="m 1160.66,1182.55 c 0,-182.78 0,-365.558 0,-548.339 0,-8.039 12.5,-8.051 12.5,0 0,182.781 0,365.559 0,548.339 0,8.04 -12.5,8.05 -12.5,0" /><path
         id="path128"
         style="fill:#d3d8f0;fill-opacity:1;fill-rule:nonzero;stroke:none"
         d="M 967.645,1084.55 H 866.219 v 101.43 h 101.426 v -101.43" /><path
         id="path130"
         style="fill:#d3d8f0;fill-opacity:1;fill-rule:nonzero;stroke:none"
         d="m 1350.91,634.898 h -101.43 v 101.434 h 101.43 V 634.898" /><path
         id="path132"
         style="fill:#1d2146;fill-opacity:1;fill-rule:nonzero;stroke:none"
         d="m 679.043,643.5 -0.617,521.29 c 0.015,9.8 7.957,17.74 17.765,17.76 l 705.739,-1.57 0.03,10 -705.757,1.57 h -0.012 c -15.336,0 -27.761,-12.43 -27.765,-27.77 l 0.617,-521.288 10,0.008" /><path
         id="path134"
         style="fill:#f79334;fill-opacity:1;fill-rule:nonzero;stroke:none"
         d="m 2064.68,634.898 h -684.79 c -12.07,0 -21.86,9.793 -21.86,21.864 v 493.448 c 0,19.75 16.01,35.77 35.77,35.77 h 670.88 c 12.08,0 21.87,-9.79 21.87,-21.87 V 656.762 c 0,-12.071 -9.79,-21.864 -21.87,-21.864" /><path
         id="path136"
         style="fill:#1d2146;fill-opacity:1;fill-rule:nonzero;stroke:none"
         d="m 1845.26,1182.55 c 0,-182.78 0,-365.558 0,-548.339 0,-8.039 12.5,-8.051 12.5,0 0,182.781 0,365.559 0,548.339 0,8.04 -12.5,8.05 -12.5,0" /><path
         id="path138"
         style="fill:#d3d8f0;fill-opacity:1;fill-rule:nonzero;stroke:none"
         d="m 1652.25,1084.55 h -101.43 v 101.43 h 101.43 v -101.43" /><path
         id="path140"
         style="fill:#d3d8f0;fill-opacity:1;fill-rule:nonzero;stroke:none"
         d="m 2035.51,634.898 h -101.43 v 101.434 h 101.43 V 634.898" /><path
         id="path142"
         style="fill:#1d2146;fill-opacity:1;fill-rule:nonzero;stroke:none"
         d="m 1363.64,643.5 -0.61,521.29 c 0.02,9.8 7.95,17.74 17.76,17.76 h -0.01 l 705.76,-1.57 0.02,10 -705.75,1.57 h -0.02 c -15.33,0 -27.76,-12.43 -27.76,-27.77 l 0.61,-521.288 10,0.008" /><path
         id="path144"
         style="fill:#4a5ab2;fill-opacity:1;fill-rule:nonzero;stroke:none"
         d="M 2114.52,597.898 H 622.328 c -10.027,0 -18.156,8.133 -18.156,18.153 0,10.031 8.129,18.16 18.156,18.16 H 2114.52 c 10.03,0 18.16,-8.129 18.16,-18.16 0,-10.02 -8.13,-18.153 -18.16,-18.153" /><path
         id="path146"
         style="fill:#4a5ab2;fill-opacity:1;fill-rule:nonzero;stroke:none"
         d="M 2114.52,416.531 H 622.328 c -10.027,0 -18.156,8.129 -18.156,18.16 0,10.028 8.129,18.161 18.156,18.161 H 2114.52 c 10.03,0 18.16,-8.133 18.16,-18.161 0,-10.031 -8.13,-18.16 -18.16,-18.16" /><path
         id="path148"
         style="fill:#4a5ab2;fill-opacity:1;fill-rule:nonzero;stroke:none"
         d="M 815.086,452.852 H 629.137 V 608.309 H 815.086 V 452.852" /><path
         id="path150"
         style="fill:#4a5ab2;fill-opacity:1;fill-rule:nonzero;stroke:none"
         d="m 1464.39,452.852 h -185.95 v 155.457 h 185.95 V 452.852" /><path
         id="path152"
         style="fill:#4a5ab2;fill-opacity:1;fill-rule:nonzero;stroke:none"
         d="m 2113.69,452.852 h -185.95 v 155.457 h 185.95 V 452.852" /><path
         id="path154"
         style="fill:#1d2146;fill-opacity:1;fill-rule:nonzero;stroke:none"
         d="m 625.012,588.781 c 193.269,0 386.538,0 579.808,0 194.1,0 388.21,0 582.31,0 109.13,0 218.26,0 327.39,0 8.04,0 8.06,12.5 0,12.5 -193.27,0 -386.54,0 -579.81,0 -194.1,0 -388.2,0 -582.308,0 -109.129,0 -218.257,0 -327.39,0 -8.043,0 -8.055,-12.5 0,-12.5" /><path
         id="path156"
         style="fill:#1d2146;fill-opacity:1;fill-rule:nonzero;stroke:none"
         d="m 625.012,446.602 c 193.269,0 386.538,0 579.808,0 194.1,0 388.21,0 582.31,0 109.13,0 218.26,0 327.39,0 8.04,0 8.06,12.5 0,12.5 -193.27,0 -386.54,0 -579.81,0 -194.1,0 -388.2,0 -582.308,0 -109.129,0 -218.257,0 -327.39,0 -8.043,0 -8.055,-12.5 0,-12.5" /><path
         id="path158"
         style="fill:#1d2146;fill-opacity:1;fill-rule:nonzero;stroke:none"
         d="m 699.051,1739.77 c 180.574,0 361.149,0 541.729,0 177.85,0 355.71,0 533.57,0 102.77,0 205.53,0 308.3,0 8.05,0 8.06,12.5 0,12.5 -180.57,0 -361.15,0 -541.73,0 -177.85,0 -355.71,0 -533.57,0 -102.764,0 -205.534,0 -308.299,0 -8.043,0 -8.059,-12.5 0,-12.5" /><path
         id="path160"
         style="fill:#1d2146;fill-opacity:1;fill-rule:nonzero;stroke:none"
         d="m 1364.88,1197.83 c 0,182.73 0,365.46 0,548.19 0,8.05 -12.5,8.06 -12.5,0 0,-182.73 0,-365.46 0,-548.19 0,-8.04 12.5,-8.05 12.5,0" /><path
         id="path162"
         style="fill:#1d2146;fill-opacity:1;fill-rule:nonzero;stroke:none"
         d="m 3335.28,750.012 c 0,-107.114 -43.31,-243.364 -107.66,-310.41 -29.99,-31.25 -121.11,-27.622 -191.56,-27.622 -165.26,0 -299.22,151.34 -299.22,338.032 0,186.687 133.96,338.028 299.22,338.028 12.57,0 118.65,1.63 130.81,-0.07 147.74,-20.66 168.41,-165.482 168.41,-337.958" /><path
         id="path164"
         style="fill:#4a5ab2;fill-opacity:1;fill-rule:nonzero;stroke:none"
         d="m 3466.1,749.941 c 0,-186.691 -133.97,-338.031 -299.23,-338.031 -165.25,0 -299.22,151.34 -299.22,338.031 0,186.688 133.97,338.029 299.22,338.029 165.26,0 299.23,-151.341 299.23,-338.029" /><path
         id="path166"
         style="fill:#adb9e4;fill-opacity:1;fill-rule:nonzero;stroke:none"
         d="m 3297.69,749.941 c 0,-83.742 -58.57,-151.632 -130.82,-151.632 -72.24,0 -130.81,67.89 -130.81,151.632 0,83.75 58.57,151.629 130.81,151.629 72.25,0 130.82,-67.879 130.82,-151.629" /><path
         id="path168"
         style="fill:#1d2146;fill-opacity:1;fill-rule:nonzero;stroke:none"
         d="M 3638.5,645.551 H 2340.74 V 746.41 H 3638.5 V 645.551" /><path
         id="path170"
         style="fill:#1d2146;fill-opacity:1;fill-rule:nonzero;stroke:none"
         d="m 2093.18,724.742 h 4756.2 V 1321.94 H 2093.18 V 724.742" /><path
         id="path172"
         style="fill:#1d2146;fill-opacity:1;fill-rule:nonzero;stroke:none"
         d="m 6650.19,745.18 c 0,-107.098 -43.31,-243.36 -107.66,-310.41 -30,-31.25 -121.12,-27.622 -191.56,-27.622 -165.26,0 -299.23,151.344 -299.23,338.032 0,186.691 133.97,338.03 299.23,338.03 12.57,0 118.64,1.64 130.81,-0.06 147.73,-20.66 168.41,-165.49 168.41,-337.97" /><path
         id="path174"
         style="fill:#4a5ab2;fill-opacity:1;fill-rule:nonzero;stroke:none"
         d="M 6781,745.121 C 6781,558.43 6647.04,407.09 6481.78,407.09 c -165.26,0 -299.23,151.34 -299.23,338.031 0,186.688 133.97,338.029 299.23,338.029 165.26,0 299.22,-151.341 299.22,-338.029" /><path
         id="path176"
         style="fill:#adb9e4;fill-opacity:1;fill-rule:nonzero;stroke:none"
         d="m 6612.59,745.121 c 0,-83.75 -58.56,-151.629 -130.81,-151.629 -72.25,0 -130.81,67.879 -130.81,151.629 0,83.738 58.56,151.629 130.81,151.629 72.25,0 130.81,-67.891 130.81,-151.629" /><path
         id="path178"
         style="fill:#f25355;fill-opacity:1;fill-rule:nonzero;stroke:none"
         d="m 6971.4,1626.94 c -21.34,68.03 -83.32,115.32 -154.16,123.3 l -421.27,47.52 -232.9,470.63 c -7.98,16.12 -18.86,30.64 -32.15,42.76 -36.47,33.25 -107.85,32.68 -146.53,32.1 -5.46,-0.08 -10.28,-0.16 -14.25,-0.15 -107.06,0.39 -260.8,0.72 -260.8,-0.01 V 2145.58 800.711 c 0,0 288.57,0 348.18,0 46.64,0 74.1,118.578 82.1,158.937 0.38,1.903 0.58,2.973 0.69,3.571 l 0.44,1.91 c 31.73,138.901 74.51,158.751 98.49,185.011 49.98,54.71 142.37,71.35 209.7,71.35 291.11,16.66 347.9,-232.51 347.9,-232.51 l 25.24,-140.421 h 157.87 v 196.371 526.08 c 0,19.32 -2.97,38.14 -8.55,55.93" /><path
         id="path180"
         style="fill:#f79334;fill-opacity:1;fill-rule:nonzero;stroke:none"
         d="M 6979.95,1344.44 H 5709.34 v 147.59 h 1270.61 v -147.59" /><path
         id="path182"
         style="fill:#1d2146;fill-opacity:1;fill-rule:nonzero;stroke:none"
         d="m 5709.34,939.52 c 96.65,0 193.3,0 289.95,0 13.81,0 27.62,0 41.43,0 3.31,0 6.35,2.859 6.25,6.25 -1.08,39.121 5.88,79.47 16.12,117.03 21.08,77.33 64.5,149.21 133.92,191.94 53.11,32.7 115.21,45.37 176.98,46.45 3.37,0.06 6.25,2.82 6.25,6.25 -0.09,90.05 -0.17,180.1 -0.25,270.15 -0.05,46.32 -0.09,92.63 -0.13,138.95 -0.01,6.24 0.94,13.08 -1.18,18.98 -3.06,8.55 -8.45,16.86 -12.51,24.96 -48.94,97.62 -97.89,195.23 -146.83,292.85 -20.07,40.01 -40.13,80.02 -60.19,120.04 -3.7,7.39 -7.19,14.95 -11.34,22.11 -21.54,37.19 -59.62,61.74 -100.15,73.81 -45.98,13.7 -96.94,9.24 -144.41,9.24 -53.65,0.01 -107.3,0.01 -160.95,0.01 -3.49,0 -6.99,0 -10.48,0 -8.04,0 -8.05,-12.5 0,-12.5 83.28,0 166.56,0.16 249.84,-0.01 65.87,-0.13 131.14,-28.05 161.63,-88.87 16.89,-33.68 33.78,-67.36 50.67,-101.05 50.2,-100.12 100.4,-200.25 150.61,-300.38 6.54,-13.05 13.09,-26.1 19.63,-39.15 1.27,-2.54 2.58,-5.06 3.82,-7.62 -1.52,3.12 -0.39,3.06 -0.67,-0.9 -0.94,-13.33 0.02,-27.08 0.03,-40.43 0.03,-24.58 0.05,-49.15 0.07,-73.73 0.1,-100.13 0.19,-200.27 0.28,-300.41 0,-2.02 0.01,-4.03 0.01,-6.05 2.08,2.09 4.16,4.17 6.25,6.25 -103.62,-1.81 -202.61,-38.99 -265.33,-124.35 -42,-57.17 -63.86,-127.56 -71.6,-197.508 -1.69,-15.223 -3.01,-30.73 -2.59,-46.062 2.09,2.082 4.17,4.171 6.25,6.25 -96.65,0 -193.29,0 -289.94,0 -13.82,0 -27.63,0 -41.44,0 -8.05,0 -8.06,-12.5 0,-12.5" /><path
         id="path184"
         style="fill:#d3d8f0;fill-opacity:1;fill-rule:nonzero;stroke:none"
         d="m 5741.12,1813.17 c 4.41,117.22 8.81,234.43 13.21,351.65 0.63,16.83 2.05,35.54 13.83,46.95 11.15,10.79 27.85,11.4 43,11.41 44.96,0.01 89.92,0.02 134.88,0.04 38.08,0.01 77.95,-0.43 111.47,-19.41 33.16,-18.77 57.05,-51.92 76.01,-86.13 69.08,-124.71 109.49,-211.19 161.79,-318.73 19.1,-39.25 -7.49,-86 -49.44,-86.49 -137.36,-1.59 -306.85,-12.39 -423.12,-4.34 -21.08,1.46 -43.77,3.63 -59.77,18.12 -22.41,20.27 -23.02,55.88 -21.86,86.93" /><path
         id="path186"
         style="fill:#f7999f;fill-opacity:1;fill-rule:nonzero;stroke:none"
         d="m 5875.7,1705.74 c -25.71,0.1 -50.18,1.11 -69.65,3.88 5.58,-0.69 11.19,-1.12 16.7,-1.5 16.65,-1.15 34.37,-1.92 52.95,-2.38 m -89.33,7.81 c -7.72,2.16 -13.79,4.86 -17.69,8.21 5.42,-3.68 11.41,-6.3 17.69,-8.21 m 454.4,197.73 c -2.46,5.01 -4.92,10.04 -7.4,15.06 l 7.62,-14.88 -0.22,-0.18" /><path
         id="path188"
         style="fill:#e8ecf7;fill-opacity:1;fill-rule:nonzero;stroke:none"
         d="m 5880.3,1705.73 c -1.53,0 -3.07,0 -4.6,0.01 -18.58,0.46 -36.3,1.23 -52.95,2.38 -5.51,0.38 -11.12,0.81 -16.7,1.5 -7.34,1.04 -13.97,2.34 -19.68,3.93 -6.28,1.91 -12.27,4.53 -17.69,8.21 -0.05,0.04 -0.09,0.08 -0.14,0.12 l 399.99,331.13 64.84,-126.67 c 2.48,-5.02 4.94,-10.05 7.4,-15.06 l -236.28,-202.43 c -31.32,-0.56 -79.29,-3.12 -124.19,-3.12" /><path
         id="path190"
         style="fill:#f7999f;fill-opacity:1;fill-rule:nonzero;stroke:none"
         d="m 5740.78,1785.09 0.12,4.03 c 0.04,-1.27 0.09,-2.54 0.15,-3.8 l -0.27,-0.23" /><path
         id="path192"
         style="fill:#e8ecf7;fill-opacity:1;fill-rule:nonzero;stroke:none"
         d="m 5741.05,1785.32 c -0.06,1.26 -0.11,2.53 -0.15,3.8 l 2.69,89.7 352.18,293.54 37.75,-54.68 -392.47,-332.36" /><path
         id="path194"
         style="fill:#1d2146;fill-opacity:1;fill-rule:nonzero;stroke:none"
         d="m 6256.9,1711.76 v 168.03 l 43.08,-88.83 c 1.07,-2.21 1.63,-4.65 1.63,-7.11 v -55.78 c 0,-9.01 -7.3,-16.31 -16.3,-16.31 h -28.41" /><path
         id="path196"
         style="fill:#1d2146;fill-opacity:1;fill-rule:nonzero;stroke:none"
         d="m 6151.59,1882.03 c 15.84,-16.35 29.65,-35.23 44.21,-52.7 22.35,-26.81 44.67,-53.65 66.98,-80.5 5.08,-6.12 10.17,-12.24 15.26,-18.37 5.14,-6.19 13.94,2.69 8.84,8.84 -36.42,43.85 -72.82,87.71 -109.41,131.42 -5.61,6.7 -10.96,13.87 -17.05,20.15 -5.6,5.79 -14.44,-3.05 -8.83,-8.84" /><path
         id="path198"
         style="fill:#f25355;fill-opacity:1;fill-rule:nonzero;stroke:none"
         d="m 6093.09,1912.65 v -137.7 c 0,-16.91 12.15,-30.62 27.14,-30.62 h 47.05 c 14.99,0 27.14,13.71 27.14,30.62 v 135.43 c 0,16.4 -11.45,29.88 -25.98,30.58 l -47.05,2.27 c -15.43,0.75 -28.3,-13.16 -28.3,-30.58" /><path
         id="path200"
         style="fill:#f79334;fill-opacity:1;fill-rule:nonzero;stroke:none"
         d="m 6833.87,1747.61 c 0,0 -22.39,-109.77 21.84,-130.04 44.22,-20.27 120.29,-8.54 120.29,-8.54 0,0 -16.47,126.65 -142.13,138.58" /><path
         id="path202"
         style="fill:#1d2146;fill-opacity:1;fill-rule:nonzero;stroke:none"
         d="M 6997.18,730.449 H 6828.2 l -81.6,362.301 h 250.58 c 33.01,0 59.77,-26.76 59.77,-59.77 V 790.219 c 0,-33.008 -26.76,-59.77 -59.77,-59.77" /><path
         id="path204"
         style="fill:#d3d8f0;fill-opacity:1;fill-rule:nonzero;stroke:none"
         d="m 6979.95,1162.36 h -74.4 c -24.31,0 -44.02,19.71 -44.02,44.03 0,24.31 19.71,44.02 44.02,44.02 h 74.4 v -88.05" /><path
         id="path206"
         style="fill:#adb9e4;fill-opacity:1;fill-rule:nonzero;stroke:none"
         d="M 2865.48,770.531 H 1862.69 V 2729.31 H 2865.48 V 770.531" /><path
         id="path208"
         style="fill:#d3d8f0;fill-opacity:1;fill-rule:nonzero;stroke:none"
         d="M 2865.48,818.789 V 2728.81 h 2733.1 c 68.96,0 124.86,-55.9 124.86,-124.86 V 818.789 H 4398.22 v 43.57 c 0,192.121 -155.75,347.871 -347.87,347.871 h -209.51 c -139.44,0 -220.94,-93.39 -237.62,-231.832 l -53.9,-159.609 h -683.84" /><path
         id="path210"
         style="fill:#4a5ab2;fill-opacity:1;fill-rule:nonzero;stroke:none"
         d="M 2791.42,2582.48 H 1949.63 V 1967.3 h 841.79 v 615.18" /><path
         id="path212"
         style="fill:#4a5ab2;fill-opacity:1;fill-rule:nonzero;stroke:none"
         d="M 2791.42,890.77 H 1949.63 V 1967.3 h 841.79 V 890.77" /><path
         id="path214"
         style="fill:#1d2146;fill-opacity:1;fill-rule:nonzero;stroke:none"
         d="m 2791.42,1679.29 -841.79,288.01 h 841.79 z" /><path
         id="path216"
         style="fill:#f79334;fill-opacity:1;fill-rule:nonzero;stroke:none"
         d="m 2850.11,978.891 c 0,-9.879 -8.02,-17.903 -17.9,-17.903 -9.89,0 -17.9,8.024 -17.9,17.903 0,9.89 8.01,17.898 17.9,17.898 9.88,0 17.9,-8.008 17.9,-17.898" /><path
         id="path218"
         style="fill:#f79334;fill-opacity:1;fill-rule:nonzero;stroke:none"
         d="m 2850.11,925.879 c 0,-9.891 -8.02,-17.899 -17.9,-17.899 -9.89,0 -17.9,8.008 -17.9,17.899 0,9.891 8.01,17.902 17.9,17.902 9.88,0 17.9,-8.011 17.9,-17.902" /><path
         id="path220"
         style="fill:#f79334;fill-opacity:1;fill-rule:nonzero;stroke:none"
         d="m 2850.11,872.871 c 0,-9.891 -8.02,-17.902 -17.9,-17.902 -9.89,0 -17.9,8.011 -17.9,17.902 0,9.879 8.01,17.899 17.9,17.899 9.88,0 17.9,-8.02 17.9,-17.899" /><path
         id="path222"
         style="fill:#f79334;fill-opacity:1;fill-rule:nonzero;stroke:none"
         d="m 1922.02,978.891 c 0,-9.879 -8.01,-17.903 -17.9,-17.903 -9.88,0 -17.9,8.024 -17.9,17.903 0,9.89 8.02,17.898 17.9,17.898 9.89,0 17.9,-8.008 17.9,-17.898" /><path
         id="path224"
         style="fill:#f79334;fill-opacity:1;fill-rule:nonzero;stroke:none"
         d="m 1922.02,925.879 c 0,-9.891 -8.01,-17.899 -17.9,-17.899 -9.88,0 -17.9,8.008 -17.9,17.899 0,9.891 8.02,17.902 17.9,17.902 9.89,0 17.9,-8.011 17.9,-17.902" /><path
         id="path226"
         style="fill:#f79334;fill-opacity:1;fill-rule:nonzero;stroke:none"
         d="m 1922.02,872.871 c 0,-9.891 -8.01,-17.902 -17.9,-17.902 -9.88,0 -17.9,8.011 -17.9,17.902 0,9.879 8.02,17.899 17.9,17.899 9.89,0 17.9,-8.02 17.9,-17.899" /><path
         id="path228"
         style="fill:#1d2146;fill-opacity:1;fill-rule:nonzero;stroke:none"
         d="m 1957.18,2095.12 c 215.49,0 430.97,0 646.46,0 61.33,0 122.66,0 183.99,0 8.05,0 8.06,12.5 0,12.5 -215.48,0 -430.97,0 -646.46,0 -61.33,0 -122.66,0 -183.99,0 -8.04,0 -8.05,-12.5 0,-12.5" /><path
         id="path230"
         style="fill:#1d2146;fill-opacity:1;fill-rule:nonzero;stroke:none"
         d="m 1957.18,2237.53 c 215.49,0 430.97,0 646.46,0 61.33,0 122.66,0 183.99,0 8.05,0 8.06,12.5 0,12.5 -215.48,0 -430.97,0 -646.46,0 -61.33,0 -122.66,0 -183.99,0 -8.04,0 -8.05,-12.5 0,-12.5" /><path
         id="path232"
         style="fill:#1d2146;fill-opacity:1;fill-rule:nonzero;stroke:none"
         d="m 1957.18,2379.93 c 215.49,0 430.97,0 646.46,0 61.33,0 122.66,0 183.99,0 8.05,0 8.06,12.5 0,12.5 -215.48,0 -430.97,0 -646.46,0 -61.33,0 -122.66,0 -183.99,0 -8.04,0 -8.05,-12.5 0,-12.5" /><path
         id="path234"
         style="fill:#1d2146;fill-opacity:1;fill-rule:nonzero;stroke:none"
         d="m 1953.42,2512.74 c 215.48,0 430.97,0 646.45,0 61.34,0 122.67,0 184,0 8.04,0 8.05,12.5 0,12.5 -215.49,0 -430.98,0 -646.46,0 -61.33,0 -122.66,0 -183.99,0 -8.05,0 -8.06,-12.5 0,-12.5" /><path
         id="path236"
         style="fill:#d3d8f0;fill-opacity:1;fill-rule:nonzero;stroke:none"
         d="m 2791.42,830.949 h -870.4 v 59.821 h 870.4 v -59.821" /><path
         id="path238"
         style="fill:#1d2146;fill-opacity:1;fill-rule:nonzero;stroke:none"
         d="m 4207.65,755.762 c 0,-107.114 -43.31,-243.371 -107.66,-310.41 -30,-31.25 -121.12,-27.622 -191.56,-27.622 -165.26,0 -299.23,151.34 -299.23,338.032 0,186.679 133.97,338.018 299.23,338.018 12.57,0 118.64,1.64 130.81,-0.06 147.73,-20.66 168.41,-165.482 168.41,-337.958" /><path
         id="path240"
         style="fill:#4a5ab2;fill-opacity:1;fill-rule:nonzero;stroke:none"
         d="M 4338.46,755.691 C 4338.46,569 4204.5,417.66 4039.24,417.66 c -165.26,0 -299.22,151.34 -299.22,338.031 0,186.688 133.96,338.029 299.22,338.029 165.26,0 299.22,-151.341 299.22,-338.029" /><path
         id="path242"
         style="fill:#adb9e4;fill-opacity:1;fill-rule:nonzero;stroke:none"
         d="m 4170.05,755.691 c 0,-83.742 -58.56,-151.632 -130.81,-151.632 -72.25,0 -130.81,67.89 -130.81,151.632 0,83.75 58.56,151.629 130.81,151.629 72.25,0 130.81,-67.879 130.81,-151.629" /><path
         id="path244"
         style="fill:#f79334;fill-opacity:1;fill-rule:nonzero;stroke:none"
         d="m 2706.48,891.449 h -684.79 c -12.08,0 -21.86,9.789 -21.86,21.86 v 493.451 c 0,19.76 16.01,35.77 35.77,35.77 h 670.88 c 12.08,0 21.87,-9.79 21.87,-21.86 V 913.309 c 0,-12.071 -9.79,-21.86 -21.87,-21.86" /><path
         id="path246"
         style="fill:#1d2146;fill-opacity:1;fill-rule:nonzero;stroke:none"
         d="m 2487.06,1439.1 c 0,-182.78 0,-365.56 0,-548.33 0,-8.051 12.5,-8.059 12.5,0 0,182.77 0,365.55 0,548.33 0,8.04 -12.5,8.06 -12.5,0" /><path
         id="path248"
         style="fill:#d3d8f0;fill-opacity:1;fill-rule:nonzero;stroke:none"
         d="m 2294.05,1341.1 h -101.43 v 101.43 h 101.43 V 1341.1" /><path
         id="path250"
         style="fill:#d3d8f0;fill-opacity:1;fill-rule:nonzero;stroke:none"
         d="m 2677.31,891.449 h -101.43 v 101.43 h 101.43 v -101.43" /><path
         id="path252"
         style="fill:#1d2146;fill-opacity:1;fill-rule:nonzero;stroke:none"
         d="m 2442.17,2018.03 h -139.53 c -9,0 -16.31,7.3 -16.31,16.31 0,9 7.31,16.3 16.31,16.3 h 139.53 c 9.01,0 16.31,-7.3 16.31,-16.3 0,-9.01 -7.3,-16.31 -16.31,-16.31" /><path
         id="path254"
         style="fill:#ffffff;fill-opacity:1;fill-rule:nonzero;stroke:none"
         d="m 2874.2,2011.78 c 149.44,-2.63 274.87,97.56 373.56,199.85 110.73,114.77 195,252.06 307.02,365.83 60.1,61.05 128.77,115.86 209.9,145.82 7.48,2.77 4.25,14.85 -3.32,12.06 -139.73,-51.6 -242.23,-170.21 -332.62,-283.53 -99.48,-124.73 -192.48,-255.67 -324.73,-348.65 -68.08,-47.87 -145.47,-80.37 -229.81,-78.88 -8.05,0.14 -8.05,-12.36 0,-12.5" /><path
         id="path256"
         style="fill:#ffffff;fill-opacity:1;fill-rule:nonzero;stroke:none"
         d="M 4048.05,2718.16 C 3922.8,2610.64 3801.28,2498.69 3685.85,2380.65 3571.28,2263.5 3462.76,2140.35 3363,2010.31 c -50.12,-65.34 -98,-132.42 -143.19,-201.26 -44.23,-67.37 -87.1,-137.03 -113.13,-213.76 -22.79,-67.19 -31.04,-138.95 -13.64,-208.36 14.97,-59.76 47.87,-116.67 99.11,-152.27 61.21,-42.53 140.11,-44.91 209.47,-23.01 75.33,23.78 137.84,74.59 193.5,129.03 120.31,117.68 229.45,246.12 354.3,359.31 121.4,110.06 257.71,207.28 413.17,262.65 75.11,26.75 154.29,43.57 234.15,45.35 63.3,1.41 138.07,-9.5 181.62,-60.42 53.86,-62.97 26.57,-151.84 -8.7,-216.56 -37.84,-69.45 -88.83,-133.04 -141.2,-191.97 -105.97,-119.23 -229.61,-221.12 -355.46,-318.48 -31.69,-24.52 -63.59,-48.78 -95.5,-73.02 -6.32,-4.8 -0.1,-15.66 6.31,-10.79 126.29,95.94 252.92,192.39 366.82,303.11 56.65,55.05 109.91,113.64 157.59,176.67 45.49,60.13 92.7,126.28 108.46,201.43 13.92,66.42 -6.58,133.18 -66.45,169.27 -57.12,34.43 -128.52,36.48 -193.09,31.11 -157.73,-13.13 -306.66,-78.78 -436.73,-166.56 -138.93,-93.77 -257.64,-213.58 -372.8,-334.42 -57.43,-60.28 -113.35,-122.51 -173.78,-179.84 -59.09,-56.06 -127,-106.24 -208.53,-122.26 -74.96,-14.74 -151.54,4.72 -203.04,62.66 -44.05,49.57 -65.45,117.67 -66.4,183.26 -1.18,80.6 28.87,158.86 66.37,228.91 38.72,72.32 85.69,140.56 133.04,207.43 96.17,135.82 202.47,264.31 315.6,386.31 112.25,121.05 231.24,235.75 354.5,345.52 30.25,26.94 60.78,53.58 91.52,79.97 6.11,5.25 -2.77,14.05 -8.84,8.84" /><path
         id="path258"
         style="fill:#ffffff;fill-opacity:1;fill-rule:nonzero;stroke:none"
         d="m 4515.9,849.559 c 106.5,173.761 263.01,316.541 448.55,401.801 46.76,21.49 95.16,38.52 144.56,52.84 54.26,15.73 109.26,29.07 162.66,47.66 50.97,17.75 100.33,40.48 143.97,72.57 40.83,30.03 76.46,66.48 107.45,106.51 38.68,49.95 68.7,105.33 99,160.57 32.69,59.61 64.62,119.65 98.22,178.77 3.98,7 -6.82,13.3 -10.8,6.3 -29.67,-52.2 -58.02,-105.13 -86.77,-157.84 -27.64,-50.66 -54.45,-102.26 -87.26,-149.82 -30.27,-43.87 -65.6,-84.55 -106.75,-118.55 -44.01,-36.37 -94.71,-62.56 -148.17,-82.1 -100.54,-36.75 -206.39,-55.33 -304.89,-98.27 -90.43,-39.42 -174.6,-92.66 -249.89,-156.35 -86.79,-73.41 -161.29,-160.888 -220.67,-257.779 -4.22,-6.883 6.59,-13.16 10.79,-6.312" /><path
         id="path260"
         style="fill:#ffffff;fill-opacity:1;fill-rule:nonzero;stroke:none"
         d="m 4507.22,2716.26 c -82.27,-77.3 -182.13,-181.77 -145.05,-306.01 16.24,-54.4 61.1,-92.21 109.71,-117.88 53.55,-28.28 112.49,-45.98 172.21,-55.22 127.83,-19.78 257.47,-2.34 382.85,24.77 135.77,29.36 270.51,72.03 409.36,84.62 65.23,5.92 146.21,4.41 198.52,-41.12 44.22,-38.49 58.22,-101.54 74.06,-155.37 2.27,-7.7 14.34,-4.42 12.06,3.33 -13.84,47.02 -26.19,97.96 -56.13,137.84 -31.18,41.53 -80.86,60.13 -130.97,66.91 -62.42,8.46 -126.02,-0.88 -187.57,-11.68 -67.67,-11.87 -134.47,-28.05 -201.23,-44.18 -128.46,-31.03 -258.27,-61.99 -391.25,-61.15 -62.87,0.39 -125.85,7.92 -186.2,25.95 -56.29,16.81 -116.05,42.11 -157.24,85.42 -49.47,52.02 -51.87,126.23 -26.07,190.32 26.69,66.28 80.79,116.7 131.77,164.61 5.88,5.52 -2.97,14.35 -8.83,8.84" /><path
         id="path262"
         style="fill:#ffffff;fill-opacity:1;fill-rule:nonzero;stroke:none"
         d="m 2869.31,1079.6 c 55.64,16.44 112.5,29.55 170.1,36.88 52.34,6.66 105.49,8.74 157.28,-3.02 46.7,-10.6 91.68,-31.82 125.17,-66.62 29.25,-30.39 53.24,-66.031 75.56,-101.66 23.54,-37.578 45.81,-76.559 63.28,-117.391 3.15,-7.367 13.93,-1.008 10.79,6.313 -16.29,38.097 -36.86,74.519 -58.54,109.769 -22.7,36.879 -47.2,73.489 -76.42,105.579 -69.5,76.3 -176.92,91.71 -274.88,82.04 -66.33,-6.54 -131.81,-20.97 -195.66,-39.84 -7.7,-2.28 -4.42,-14.34 3.32,-12.05" /><path
         id="path264"
         style="fill:#ffffff;fill-opacity:1;fill-rule:nonzero;stroke:none"
         d="m 4909.31,794.66 c 84.62,81.129 185.13,145.27 294.38,187.852 53.78,20.968 109.59,36.818 166.41,47.038 57.52,10.35 116,14.27 173.9,21.91 62.25,8.23 124.78,19.49 182.59,44.86 7.35,3.22 1,13.99 -6.3,10.79 -108.63,-47.65 -230.41,-44.45 -345.39,-64.08 -113,-19.29 -222.17,-60.69 -319.97,-120.428 -55.61,-33.973 -107.42,-74.012 -154.46,-119.102 -5.82,-5.578 3.03,-14.41 8.84,-8.84" /><path
         id="path266"
         style="fill:#adb9e4;fill-opacity:1;fill-rule:nonzero;stroke:none"
         d="m 1837.52,753.891 c 75.04,2.371 150.43,0.191 225.48,-0.172 148.65,-0.719 297.3,-1.707 445.95,-2.727 159,-1.082 318,-2.23 477,-3.351 108.32,-0.77 216.65,-1.621 324.97,-2.129 49.01,-0.231 97.7,0.269 146.08,10.047 65.64,13.281 124.48,46.941 160.32,104.722 30.01,48.399 40.12,109.77 62.08,158.559 22.65,50.34 55.23,94.29 107.82,116.07 60,24.85 129.28,23.43 193,24.24 63.81,0.81 132.12,0.46 190.38,-29.15 25.1,-12.76 47.25,-28.79 66.39,-49.48 18.71,-20.22 30.74,-45.39 42.25,-71.24 0.29,-0.64 3.73,-8.57 1.21,-2.6 0.83,-1.96 1.63,-3.94 2.42,-5.93 1.7,-4.238 3.36,-8.5 4.95,-12.781 3.86,-10.379 7.35,-20.887 10.94,-31.36 4.94,-14.429 9.82,-28.75 15.74,-42.8 14.67,-34.758 34.18,-67.68 60.34,-95.129 31.45,-33.008 72.23,-53.11 118.14,-53.321 12.74,-0.058 25.48,0.172 38.22,0.25 120.81,0.832 241.62,1.68 362.43,2.52 159.65,1.121 319.29,2.242 478.94,3.359 101.36,0.711 202.72,1.422 304.09,2.133 5.11,0.039 10.22,0.078 15.34,0.109 58.6,0.411 58.74,91.532 0,91.122 -73.05,-0.52 -146.1,-1.032 -219.15,-1.543 -154.51,-1.09 -309.03,-2.168 -463.54,-3.25 -138.62,-0.969 -277.24,-1.95 -415.86,-2.899 -33.61,-0.238 -67.25,-0.871 -100.86,-0.691 -0.95,0 -1.9,-0.028 -2.84,-0.02 -2.18,0.039 -4.35,0.153 -6.52,0.211 -7.29,0.192 6.48,-1.609 -0.46,0.02 -4.73,1.121 -9.29,2.34 -13.89,3.89 7.89,-2.66 -6.67,3.66 -9.17,5.192 -2.19,1.34 -12.08,8.769 -5.63,3.508 -4.19,3.41 -8.18,7.109 -11.99,10.929 -3.33,3.34 -6.4,6.883 -9.56,10.371 -1.34,1.481 -2.58,3.059 -3.84,4.602 6.17,-7.512 -1.68,2.359 -2.32,3.269 -9.69,13.688 -18.06,28.329 -25.29,43.457 -1.38,2.911 -2.59,5.911 -4.02,8.793 -3.34,6.719 3.96,-11.293 1.44,-3.421 -0.91,2.839 -2.17,5.71 -3.19,8.519 -17.87,49.361 -32.69,101.721 -60.92,146.471 -35.54,56.33 -89.87,96.79 -151.19,121.25 -66.02,26.34 -139.76,27.75 -209.88,26.65 -68.61,-1.07 -141.26,-1.94 -206.4,-26.01 -62.64,-23.14 -112.62,-65.42 -147.06,-122.59 -31.24,-51.85 -43.13,-110.048 -65.77,-165.349 -8.84,-21.59 -22.69,-45.219 -42.28,-60.672 -21.16,-16.68 -46.93,-25.07 -73,-30.84 -30.73,-6.801 -62.18,-8.187 -93.58,-8.187 -86.09,0 -172.17,0.937 -258.25,1.527 -152.88,1.063 -305.76,2.18 -458.64,3.242 -157,1.098 -314.01,2.18 -471.01,3.059 -98.37,0.551 -196.75,1.441 -295.13,0.961 -8.22,-0.039 -16.46,-0.039 -24.68,-0.301 -58.49,-1.84 -58.75,-92.961 0,-91.109" /><path
         id="path268"
         style="fill:#d3d8f0;fill-opacity:1;fill-rule:nonzero;stroke:none"
         d="m 6422.12,2166.61 c 0,-23.4 -18.97,-42.38 -42.38,-42.38 -23.41,0 -42.39,18.98 -42.39,42.38 0,23.41 18.98,42.39 42.39,42.39 23.41,0 42.38,-18.98 42.38,-42.39" /><path
         id="path270"
         style="fill:#d3d8f0;fill-opacity:1;fill-rule:nonzero;stroke:none"
         d="m 5125.85,3346.84 c 0,-23.41 -18.98,-42.39 -42.39,-42.39 -23.41,0 -42.38,18.98 -42.38,42.39 0,23.41 18.97,42.38 42.38,42.38 23.41,0 42.39,-18.97 42.39,-42.38" /><path
         id="path272"
         style="fill:#1d2146;fill-opacity:1;fill-rule:nonzero;stroke:none"
         d="m 6725.03,2655.87 -759.96,1.48 c -44.42,0.08 -80.35,36.16 -80.26,80.57 l 2.86,1466.28 c 0.08,44.41 36.16,80.34 80.57,80.26 l 759.96,-1.49 c 44.42,-0.08 80.35,-36.16 80.26,-80.57 l -2.86,-1466.28 c -0.08,-44.41 -36.15,-80.34 -80.57,-80.25" /><path
         id="path274"
         style="fill:#ffffff;fill-opacity:1;fill-rule:nonzero;stroke:none"
         d="m 6763.03,2908.29 -838.54,1.64 2.39,1227.33 838.54,-1.63 -2.39,-1227.34" /><path
         id="path276"
         style="fill:#4a5ab2;fill-opacity:1;fill-rule:nonzero;stroke:none"
         d="m 6453.3,4194.77 -210.63,2.44 c -4.63,0.06 -8.34,3.85 -8.29,8.48 l 0.03,1.84 c 0.05,4.62 3.84,8.33 8.47,8.28 l 210.63,-2.44 c 4.63,-0.06 8.34,-3.85 8.28,-8.48 l -0.02,-1.84 c -0.05,-4.62 -3.85,-8.33 -8.47,-8.28" /><path
         id="path278"
         style="fill:#4a5ab2;fill-opacity:1;fill-rule:nonzero;stroke:none"
         d="m 6432.44,2790.84 c -0.51,-43.77 -36.41,-78.84 -80.18,-78.34 -43.77,0.51 -78.84,36.41 -78.33,80.18 0.5,43.77 36.4,78.84 80.17,78.34 43.77,-0.51 78.84,-36.41 78.34,-80.18" /><path
         id="path280"
         style="fill:#f79334;fill-opacity:1;fill-rule:nonzero;stroke:none"
         d="m 6638.44,3268.72 -561.77,1.09 c -12.08,0.03 -21.85,9.83 -21.82,21.91 l 0.78,400.39 c 0.03,19.75 16.08,35.74 35.84,35.7 l 547.86,-1.07 c 12.08,-0.02 21.85,-9.83 21.82,-21.9 l -0.8,-414.3 c -0.03,-12.08 -9.83,-21.85 -21.91,-21.82" /><path
         id="path282"
         style="fill:#1d2146;fill-opacity:1;fill-rule:nonzero;stroke:none"
         d="m 6459.59,3724.23 c -0.29,-151.92 -0.59,-303.83 -0.89,-455.74 -0.01,-8.05 12.49,-8.06 12.5,0 0.3,151.91 0.6,303.82 0.89,455.74 0.02,8.04 -12.48,8.05 -12.5,0" /><path
         id="path284"
         style="fill:#d3d8f0;fill-opacity:1;fill-rule:nonzero;stroke:none"
         d="m 6300.07,3643.1 -84.3,0.17 0.16,84.3 84.3,-0.17 -0.16,-84.3" /><path
         id="path286"
         style="fill:#d3d8f0;fill-opacity:1;fill-rule:nonzero;stroke:none"
         d="m 6617.89,3268.76 -84.3,0.16 0.16,84.3 84.3,-0.16 -0.16,-84.3" /><path
         id="path288"
         style="fill:#37b858;fill-opacity:1;fill-rule:nonzero;stroke:none"
         d="m 6586.72,3358.87 c 26.44,-113.55 -44.17,-227.04 -157.72,-253.48 -113.55,-26.44 -227.03,44.17 -253.48,157.72 -26.44,113.55 44.17,227.04 157.72,253.48 113.55,26.44 227.04,-44.17 253.48,-157.72" /><path
         id="path290"
         style="fill:#ffffff;fill-opacity:1;fill-rule:nonzero;stroke:none"
         d="m 6279.04,3302.59 c 20.58,-22.91 41.16,-45.82 61.74,-68.73 8.77,-9.76 26.56,-9.54 35.36,0 31.51,34.19 63.03,68.38 94.55,102.57 4.45,4.83 8.9,9.66 13.35,14.49 9.15,9.92 9.82,25.53 0,35.35 -9.26,9.27 -26.17,9.96 -35.35,0 -31.52,-34.19 -63.04,-68.38 -94.56,-102.57 -4.45,-4.83 -8.9,-9.66 -13.35,-14.49 11.78,0 23.57,0 35.36,0 -20.59,22.91 -41.17,45.82 -61.75,68.73 -9.02,10.05 -26.16,9.19 -35.35,0 -9.99,-9.99 -9.05,-25.28 0,-35.35" /><path
         id="path292"
         style="fill:#1d2146;fill-opacity:1;fill-rule:nonzero;stroke:none"
         d="m 6097.55,3873.3 c 141.36,0 282.72,0 424.08,0 36.92,0 73.84,0 110.76,0 8.05,0 8.06,12.5 0,12.5 -141.35,0 -282.71,0 -424.07,0 -36.92,0 -73.84,0 -110.77,0 -8.04,0 -8.05,-12.5 0,-12.5" /><path
         id="path294"
         style="fill:#1d2146;fill-opacity:1;fill-rule:nonzero;stroke:none"
         d="m 6281.14,3934.71 c 55.89,0 111.78,0 167.67,0 8.04,0 8.06,12.5 0,12.5 -55.89,0 -111.78,0 -167.67,0 -8.04,0 -8.06,-12.5 0,-12.5" /><path
         id="path296"
         style="fill:#d3d8f0;fill-opacity:1;fill-rule:nonzero;stroke:none"
         d="m 2608.36,3744.7 c -20.8,-26.51 -61.77,-21.29 -77.57,9.89 -7.96,15.71 -6.3,34.91 4.19,48.28 20.8,26.51 61.78,21.29 77.57,-9.89 7.96,-15.71 6.29,-34.92 -4.19,-48.28 z m -113.6,105.19 c -34.19,-34.75 -39.15,-91.35 -11.72,-134 13.42,-20.86 32.04,-35.72 52.65,-44.19 5.02,-2.06 10.29,-3.39 15.56,-4.52 l 100.63,-21.68 c 15.82,-3.4 30.67,8.87 30.3,25.05 l -1.66,73.41 c -0.15,6.93 -0.78,20.23 -1.56,32.12 -1.47,22.35 -8.9,44.45 -23.07,62.19 l -0.33,0.41 c -40.87,50.67 -115.63,57.1 -160.8,11.21" /><path
         id="path298"
         style="fill:#d3d8f0;fill-opacity:1;fill-rule:nonzero;stroke:none"
         d="m 6776.67,2145.97 c -42.51,-9.72 -79.46,28.89 -69.95,73.11 4.79,22.28 22.1,40.23 43.53,45.13 42.51,9.73 79.46,-28.89 69.95,-73.11 -4.79,-22.28 -22.1,-40.23 -43.53,-45.13 z m -28.57,198.27 c -62.68,-7.09 -113.76,-59.97 -120.9,-125.19 -3.5,-31.9 3.12,-62.02 16.95,-87.31 3.37,-6.16 7.59,-11.78 11.96,-17.22 l 83.54,-103.74 c 13.14,-16.31 38.06,-16.06 50.87,0.51 l 58.11,75.18 c 5.49,7.09 15.69,20.97 24.58,33.56 16.73,23.66 27.26,51.95 27.45,81.33 v 0.67 c 0.16,84.24 -69.77,151.58 -152.56,142.21" /><path
         id="path300"
         style="fill:#adb9e4;fill-opacity:1;fill-rule:nonzero;stroke:none"
         d="m 7191.57,3809.94 c 20.04,26.79 5.63,69.65 -24.29,84.63 -29.92,14.97 -68.15,5.13 -92.66,-17.64 21.93,23.25 10.44,65.57 -17.19,81.62 -27.64,16.06 -63.82,9.98 -91,-6.84 -27.18,-16.82 -47.3,-42.69 -66.8,-68.01 1.05,18.35 -16.53,34.19 -34.87,35.4 -18.33,1.22 -35.27,-9.82 -47.71,-23.35 -30.13,-32.77 -47.45,-72.65 -54.4,-89.67 l 428.92,3.86" /><path
         id="path302"
         style="fill:#d3d8f0;fill-opacity:1;fill-rule:nonzero;stroke:none"
         d="m 5273.7,4128.22 c 20.04,26.8 5.63,69.66 -24.29,84.63 -29.92,14.98 -68.15,5.14 -92.66,-17.63 21.93,23.24 10.44,65.57 -17.19,81.62 -27.64,16.06 -63.82,9.97 -91,-6.84 -27.18,-16.82 -47.3,-42.69 -66.8,-68.01 1.05,18.35 -16.53,34.18 -34.87,35.4 -18.33,1.22 -35.27,-9.83 -47.71,-23.35 -30.13,-32.77 -47.45,-72.66 -54.4,-89.67 l 428.92,3.85" /><path
         id="path304"
         style="fill:#f3f2f1;fill-opacity:1;fill-rule:nonzero;stroke:none"
         d="m 1568.8,4379.29 c 20.03,26.8 5.62,69.66 -24.3,84.63 -29.92,14.97 -68.14,5.13 -92.65,-17.63 21.93,23.24 10.44,65.56 -17.2,81.62 -27.63,16.06 -63.81,9.97 -90.99,-6.84 -27.18,-16.82 -47.3,-42.69 -66.81,-68.01 1.06,18.35 -16.52,34.18 -34.86,35.4 -18.34,1.22 -35.27,-9.83 -47.71,-23.36 -30.13,-32.76 -47.46,-72.65 -54.4,-89.67 l 428.92,3.86" /><path
         id="path306"
         style="fill:#f3f2f1;fill-opacity:1;fill-rule:nonzero;stroke:none"
         d="m 6220.33,4446.51 c 20.04,26.79 5.63,69.66 -24.29,84.63 -29.92,14.97 -68.14,5.13 -92.66,-17.64 21.94,23.25 10.44,65.57 -17.19,81.63 -27.63,16.06 -63.82,9.97 -91,-6.84 -27.18,-16.82 -47.29,-42.7 -66.8,-68.01 1.06,18.35 -16.53,34.18 -34.86,35.4 -18.34,1.21 -35.28,-9.83 -47.72,-23.36 -30.13,-32.76 -47.45,-72.65 -54.39,-89.67 l 428.91,3.86" /><path
         id="path308"
         style="fill:#f3f2f1;fill-opacity:1;fill-rule:nonzero;stroke:none"
         d="m 4417.16,4429.62 c 20.04,26.79 5.63,69.65 -24.29,84.63 -29.92,14.97 -68.14,5.13 -92.66,-17.64 21.93,23.25 10.44,65.57 -17.19,81.62 -27.63,16.06 -63.82,9.98 -91,-6.84 -27.18,-16.81 -47.29,-42.69 -66.8,-68 1.06,18.34 -16.53,34.18 -34.87,35.4 -18.33,1.21 -35.27,-9.83 -47.71,-23.36 -30.13,-32.77 -47.45,-72.65 -54.4,-89.67 l 428.92,3.86" /><path
         id="path310"
         style="fill:#f3f2f1;fill-opacity:1;fill-rule:nonzero;stroke:none"
         d="m 5456.19,2879.72 c 20.03,26.8 5.62,69.66 -24.3,84.63 -29.92,14.98 -68.14,5.14 -92.65,-17.63 21.93,23.24 10.44,65.57 -17.2,81.62 -27.63,16.06 -63.81,9.97 -90.99,-6.84 -27.18,-16.82 -47.3,-42.69 -66.81,-68.01 1.06,18.35 -16.52,34.18 -34.86,35.4 -18.34,1.22 -35.27,-9.83 -47.71,-23.35 -30.13,-32.77 -47.46,-72.66 -54.4,-89.67 l 428.92,3.85" /><path
         id="path312"
         style="fill:#adb9e4;fill-opacity:1;fill-rule:nonzero;stroke:none"
         d="m 2674.05,4196.47 c 20.04,26.8 5.63,69.66 -24.29,84.63 -29.92,14.97 -68.14,5.13 -92.66,-17.64 21.93,23.25 10.44,65.58 -17.19,81.63 -27.64,16.06 -63.82,9.97 -91,-6.84 -27.18,-16.82 -47.29,-42.7 -66.8,-68.01 1.05,18.35 -16.53,34.18 -34.87,35.4 -18.33,1.22 -35.27,-9.83 -47.71,-23.35 -30.13,-32.77 -47.45,-72.66 -54.4,-89.67 l 428.92,3.85" /><path
         id="path314"
         style="fill:#adb9e4;fill-opacity:1;fill-rule:nonzero;stroke:none"
         d="m 795.777,3776.73 c 20.036,26.8 5.625,69.66 -24.297,84.64 -29.917,14.97 -68.14,5.13 -92.656,-17.64 21.934,23.25 10.446,65.57 -17.191,81.62 -27.633,16.06 -63.817,9.98 -90.996,-6.84 -27.18,-16.82 -47.297,-42.69 -66.809,-68.01 1.063,18.35 -16.523,34.19 -34.859,35.4 -18.336,1.22 -35.274,-9.83 -47.711,-23.35 -30.129,-32.77 -47.457,-72.65 -54.399,-89.67 l 428.918,3.85" /><path
         id="path316"
         style="fill:#3891d6;fill-opacity:1;fill-rule:nonzero;stroke:none"
         d="m 3427.64,4283.74 c -58.61,-30.76 -127.8,11.56 -131.02,80.12 -1.61,34.56 16.82,67.62 46.35,83.12 58.61,30.77 127.81,-11.55 131.02,-80.12 1.62,-34.56 -16.82,-67.62 -46.35,-83.12 z m -118.87,279.83 c -89.22,-34.73 -143.64,-132.14 -128.82,-230.61 7.26,-48.16 28.65,-89.78 58.76,-121.52 7.33,-7.74 15.7,-14.35 24.24,-20.63 l 162.83,-119.79 c 25.61,-18.84 62.08,-8.8 74.44,20.48 l 56.08,132.86 c 5.31,12.53 14.89,36.87 23.06,58.78 15.35,41.22 19.82,86.8 8.7,129.99 l -0.25,0.98 c -32.46,123.67 -161.2,195.34 -279.04,149.46" /><path
         id="path318"
         style="fill:#f79334;fill-opacity:1;fill-rule:nonzero;stroke:none"
         d="m 5264.49,1090.71 h -446.82 c -12.08,0 -21.87,9.79 -21.87,21.86 v 313.44 c 0,19.75 16.02,35.77 35.78,35.77 h 432.91 c 12.07,0 21.86,-9.79 21.86,-21.86 v -327.35 c 0,-12.07 -9.79,-21.86 -21.86,-21.86" /><path
         id="path320"
         style="fill:#1d2146;fill-opacity:1;fill-rule:nonzero;stroke:none"
         d="m 5121.84,1459.47 c 0,-123.07 0,-246.15 0,-369.22 0,-8.04 12.5,-8.06 12.5,0 0,123.07 0,246.15 0,369.22 0,8.04 -12.5,8.06 -12.5,0" /><path
         id="path322"
         style="fill:#d3d8f0;fill-opacity:1;fill-rule:nonzero;stroke:none"
         d="m 4993.92,1393.48 h -68.3 v 68.3 h 68.3 v -68.3" /><path
         id="path324"
         style="fill:#d3d8f0;fill-opacity:1;fill-rule:nonzero;stroke:none"
         d="m 5251.99,1090.71 h -68.3 v 68.3 h 68.3 v -68.3" /><path
         id="path326"
         style="fill:#1d2146;fill-opacity:1;fill-rule:nonzero;stroke:none"
         d="m 4801.22,1096.5 -0.42,351.02 c 0.01,5.69 4.63,10.31 10.33,10.32 l 475.21,-1.06 0.02,10 -475.22,1.06 c -11.24,0 -20.33,-9.1 -20.34,-20.33 l 0.42,-351.02 10,0.01" /><path
         id="path328"
         style="fill:#f79334;fill-opacity:1;fill-rule:nonzero;stroke:none"
         d="m 5486.02,413.891 h -844.29 c -12.07,0 -21.86,9.789 -21.86,21.871 v 614.088 c 0,19.76 16.02,35.77 35.77,35.77 h 830.38 c 12.08,0 21.87,-9.79 21.87,-21.86 V 435.762 c 0,-12.082 -9.79,-21.871 -21.87,-21.871" /><path
         id="path330"
         style="fill:#1d2146;fill-opacity:1;fill-rule:nonzero;stroke:none"
         d="m 5215.14,1081.44 c 0,-173.831 0,-347.659 0,-521.499 0,-48.961 0,-97.921 0,-146.882 0,-8.047 12.5,-8.059 12.5,0 0,173.832 0,347.66 0,521.492 0,48.961 0,97.929 0,146.889 0,8.04 -12.5,8.06 -12.5,0" /><path
         id="path332"
         style="fill:#d3d8f0;fill-opacity:1;fill-rule:nonzero;stroke:none"
         d="M 4978.5,961.988 H 4854.87 V 1085.62 H 4978.5 V 961.988" /><path
         id="path334"
         style="fill:#d3d8f0;fill-opacity:1;fill-rule:nonzero;stroke:none"
         d="m 5445.68,413.891 h -123.64 v 123.64 h 123.64 v -123.64" /><path
         id="path336"
         style="fill:#1d2146;fill-opacity:1;fill-rule:nonzero;stroke:none"
         d="m 4625.62,424.379 -0.75,635.411 c 0.02,12.56 10.19,22.72 22.75,22.75 l 860.26,-1.92 0.02,10 -860.27,1.92 c -18.1,-0.01 -32.76,-14.66 -32.76,-32.75 l 0.75,-635.431 10,0.02" /><path
         id="path338"
         style="fill:#1d2146;fill-opacity:1;fill-rule:nonzero;stroke:none"
         d="m 366.57,404.09 c 882.44,0 1764.88,0 2647.31,0 877.94,0 1755.88,0 2633.81,0 495.25,0 990.49,0 1485.74,0 8.04,0 8.06,12.5 0,12.5 -882.44,0 -1764.88,0 -2647.31,0 -877.94,0 -1755.88,0 -2633.81,0 -495.25,0 -990.494,0 -1485.74,0 -8.043,0 -8.058,-12.5 0,-12.5" /></g></g></svg>